Coordinates
version=1
nRows=13
nColumns=38
inDegrees=no

Units are S.I. units (second, meters, Newtons, ...)
If the header above contains a line with 'inDegrees', this indicates whether rotational values are in degrees (yes) or radians (no).

endheader
time	pelvis_tilt	pelvis_list	pelvis_rotation	pelvis_tx	pelvis_ty	pelvis_tz	hip_flexion_r	hip_adduction_r	hip_rotation_r	knee_angle_r	ankle_angle_r	subtalar_angle_r	mtp_angle_r	hip_flexion_l	hip_adduction_l	hip_rotation_l	knee_angle_l	ankle_angle_l	subtalar_angle_l	mtp_angle_l	lumbar_extension	lumbar_bending	lumbar_rotation	arm_flex_r	arm_add_r	arm_rot_r	elbow_flex_r	pro_sup_r	wrist_flex_r	wrist_dev_r	arm_flex_l	arm_add_l	arm_rot_l	elbow_flex_l	pro_sup_l	wrist_flex_l	wrist_dev_l
0.64	-1.72671	1.43854	0.285417	0.732971	1.10999	1.02931	0.249424	0.153439	-0.158196	0.187121	-0.151616	0	0	-0.0511382	-0.356441	-0.377779	0.943167	-0.6277	0	0	-0.135472	0.203754	-0.0977962	-0.100353	-0.246933	0.208294	0.558049	1.5708	0	0	0.0401074	-0.352022	0.470814	0.799588	1.21171	0	0
0.65	-1.66229	1.4418	0.227094	0.733142	1.09709	1.03226	0.201716	0.168759	-0.126543	0.123426	-0.15787	0	0	-0.0318476	-0.354696	-0.352865	0.979559	-0.594827	0	0	-0.144818	0.202352	-0.09258	-0.0947754	-0.249619	0.212015	0.562989	1.5708	0	0	0.043185	-0.350934	0.480563	0.793111	1.20415	0	0
0.66	-1.65428	1.44795	0.220402	0.732045	1.08398	1.03408	0.209463	0.147997	-0.191082	0.189977	-0.137759	0	0	-0.00817239	-0.348704	-0.335589	1.01553	-0.552042	0	0	-0.145407	0.192613	-0.0847314	-0.091108	-0.24911	0.215299	0.567158	1.5708	0	0	0.039866	-0.354174	0.485254	0.793324	1.20112	0	0
0.67	-1.60644	1.45134	0.172713	0.731758	1.07132	1.03717	0.158349	0.164954	-0.140445	0.108652	-0.163988	0	0	0.00950782	-0.34301	-0.320229	1.04566	-0.494336	0	0	-0.152595	0.188952	-0.0751444	-0.0849212	-0.251651	0.215555	0.572437	1.5708	0	0	0.0401061	-0.351389	0.487731	0.787064	1.20445	0	0
0.68	-1.57702	1.4568	0.141549	0.73093	1.0584	1.03978	0.13711	0.162369	-0.143545	0.102606	-0.161925	0	0	0.0277906	-0.335448	-0.310987	1.07174	-0.463227	0	0	-0.155826	0.180672	-0.0658671	-0.0797969	-0.252589	0.215279	0.57787	1.5708	0	0	0.0359479	-0.351903	0.487908	0.785527	1.20905	0	0
0.69	-1.53304	1.46216	0.096025	0.730205	1.04547	1.04246	0.113422	0.159887	-0.141639	0.0943794	-0.166074	0	0	0.0438301	-0.327333	-0.304007	1.0941	-0.390928	0	0	-0.159996	0.172401	-0.0583798	-0.0744811	-0.255078	0.218903	0.585307	1.5708	0	0	0.0289941	-0.35271	0.483091	0.786712	1.2179	0	0
0.7	-1.4876	1.46756	0.0488078	0.729542	1.03264	1.04511	0.0900047	0.156955	-0.138462	0.0865227	-0.166053	0	0	0.0597583	-0.31847	-0.298382	1.11042	-0.355006	0	0	-0.163457	0.163704	-0.0524925	-0.0676614	-0.259489	0.230354	0.592352	1.5708	0	0	0.0204705	-0.354783	0.478176	0.789682	1.22261	0	0
0.71	-1.45773	1.47287	0.0170767	0.728994	1.01995	1.04756	0.0696827	0.153325	-0.137093	0.080657	-0.167312	0	0	0.0776128	-0.309242	-0.293795	1.12127	-0.336107	0	0	-0.164434	0.155024	-0.0467197	-0.0630029	-0.26067	0.227592	0.600505	1.5708	0	0	0.0122906	-0.357106	0.475629	0.792103	1.22345	0	0
0.72	-1.42048	1.47896	-0.0207919	0.728622	1.00746	1.04995	0.0492944	0.148414	-0.138494	0.0747455	-0.169107	0	0	0.0951995	-0.298142	-0.287198	1.12724	-0.305802	0	0	-0.166022	0.145372	-0.0432173	-0.0586771	-0.262761	0.225977	0.611546	1.5708	0	0	0.00271243	-0.360272	0.470352	0.797083	1.22509	0	0
0.73	-1.37357	1.4841	-0.0667055	0.728305	0.995114	1.05231	0.0322832	0.142494	-0.148842	0.0780295	-0.169506	0	0	0.112565	-0.287011	-0.276626	1.12794	-0.27717	0	0	-0.168264	0.1366	-0.0416232	-0.0541907	-0.264679	0.223404	0.62329	1.5708	0	0	-0.00735018	-0.36341	0.462853	0.802553	1.22636	0	0
0.74	-1.31817	1.48987	-0.11859	0.728235	0.98283	1.05447	0.0331773	0.12974	-0.207121	0.125991	-0.155054	0	0	0.129871	-0.273467	-0.261242	1.12361	-0.241028	0	0	-0.17064	0.127137	-0.042923	-0.050717	-0.265596	0.217278	0.636712	1.5708	0	0	-0.0191183	-0.365737	0.44982	0.809255	1.22855	0	0
0.75	-1.30668	1.49528	-0.128481	0.728119	0.970607	1.0563	0.0295081	0.120574	-0.2457	0.151759	-0.145026	0	0	0.149925	-0.261068	-0.248361	1.11437	-0.221609	0	0	-0.168714	0.11861	-0.042199	-0.0477191	-0.266675	0.210621	0.648957	1.5708	0	0	-0.0298442	-0.366901	0.439529	0.812822	1.22976	0	0
0.76	-1.30437	1.50023	-0.12999	0.72805	0.958564	1.05799	0.0236589	0.112698	-0.275741	0.169815	-0.138554	0	0	0.16965	-0.249414	-0.237163	1.10048	-0.206602	0	0	-0.16681	0.110915	-0.0403494	-0.0450251	-0.268419	0.20402	0.662192	1.5708	0	0	-0.0391917	-0.367516	0.430989	0.815033	1.23052	0	0
